<?xml version="1.0" encoding="utf-8"?>
<!-- Generator: Adobe Illustrator 18.1.1, SVG Export Plug-In . SVG Version: 6.00 Build 0)  -->
<svg version="1.1" id="Livello_1" xmlns="http://www.w3.org/2000/svg" xmlns:xlink="http://www.w3.org/1999/xlink" x="0px" y="0px"
	 viewBox="0 0 631 116.1" enable-background="new 0 0 631 116.1" xml:space="preserve">
<g>
	<g>
		<path fill="#EEEEEE" d="M609.7,23.5c5.9,0,11.1,2.1,15.2,6.2c2.1,2.1,3.5,4.3,4.5,6.9c1,2.6,1.6,5.4,1.6,8.1
			c0,2.9-0.5,5.7-1.6,8.1c-1,2.6-2.6,4.8-4.5,6.7c-2.1,2.1-4.5,3.6-7.1,4.7c-2.6,1-5.4,1.6-8.1,1.6s-5.5-0.5-8.1-1.6
			c-2.6-1-4.8-2.6-6.9-4.7c-2.1-2.1-3.6-4.3-4.7-6.9s-1.6-5.2-1.6-8.1c0-2.8,0.5-5.5,1.6-8.1c1-2.6,2.6-5,4.7-6.9
			C598.8,25.6,603.8,23.5,609.7,23.5z M609.9,27.3c-4.8,0-9,1.7-12.3,5.2c-1.7,1.7-2.9,3.6-3.8,5.7s-1.4,4.3-1.4,6.6
			s0.5,4.5,1.4,6.6s2.2,4,3.8,5.7c1.7,1.7,3.6,2.9,5.7,3.8c2.1,0.9,4.3,1.4,6.6,1.4c2.2,0,4.5-0.5,6.6-1.4c2.1-0.9,4.2-2.2,5.9-3.8
			c3.3-3.3,5-7.3,5-12.3c0-2.4-0.3-4.7-1.2-6.7c-0.9-2.1-2.1-4-3.8-5.7C618.7,29.1,614.7,27.3,609.9,27.3z M609.6,41.3l-2.9,1.6
			c-0.3-0.7-0.7-1-1-1.4c-0.5-0.2-0.9-0.3-1.2-0.3c-1.9,0-2.9,1.2-2.9,3.8c0,1.2,0.2,2.1,0.7,2.8c0.5,0.7,1.2,1,2.1,1
			c1.2,0,2.1-0.7,2.6-1.9l2.6,1.4c-0.5,1-1.4,1.9-2.2,2.4c-1,0.5-2.1,0.9-3.3,0.9c-1.9,0-3.5-0.5-4.7-1.7c-1.2-1.2-1.7-2.8-1.7-4.8
			c0-2.1,0.5-3.6,1.7-4.8c1.2-1.2,2.6-1.7,4.5-1.7C606.6,38.2,608.5,39.3,609.6,41.3z M621.8,41.3l-2.8,1.6c-0.3-0.7-0.7-1-1-1.4
			c-0.5-0.2-0.9-0.3-1.2-0.3c-1.9,0-2.9,1.2-2.9,3.8c0,1.2,0.2,2.1,0.7,2.8c0.5,0.7,1.2,1,2.1,1c1.2,0,2.1-0.7,2.6-1.9l2.6,1.4
			c-0.5,1-1.4,1.9-2.4,2.4c-1,0.5-2.1,0.9-3.3,0.9c-1.9,0-3.5-0.5-4.7-1.7c-1.2-1.2-1.7-2.8-1.7-4.8c0-2.1,0.5-3.6,1.7-4.8
			c1.2-1.2,2.6-1.7,4.5-1.7C618.9,38.2,620.8,39.3,621.8,41.3z"/>
	</g>
	<g>
		<path fill="#EEEEEE" d="M115.7,87.4V25.3h16.6v2.9c0,0,4.2-2.1,8.5-3.3c2.1-0.7,4.5-1,6.2-1c6.9,0,11.8,1.7,15.2,5.2
			c6.4-2.4,14.5-5.2,21.3-5.2c17,0,22,9.9,22,31.1v32.5h-16.6V61.8c0-15.7,0.2-22.5-8.6-22.5c-5,0-11.6,2.4-11.6,2.4
			s0.5,8.6,0.5,13.5v32.2h-16.6v-32c0-11.2-1-16.1-8.6-16.1c-4.2,0-11.1,2.1-11.1,2.1v46C132.8,87.4,115.7,87.4,115.7,87.4z"/>
		<path fill="#EEEEEE" d="M260.3,70.4c0.2,3.5,0.7,5.2,4.2,5.9L264,88.9c-8.3,0-12.6-0.9-17.8-4.3c0,0-9,4.3-18.3,4.3
			c-13.1,0-19.4-7.3-19.4-20.4c0-14,8.1-18,21.8-19l13.3-1v-3.3c0-4.5-2.4-6.7-7.3-6.7c-8.3,0-23.4,1-23.4,1l-0.5-12.1
			c0,0,15.7-3.6,25.9-3.6c14.2,0,22,6.4,22,21.4L260.3,70.4L260.3,70.4z M232.3,61.1c-4.3,0.3-6.9,2.4-6.9,6.9
			c0,4.3,1.6,7.3,6.1,7.3c4.2,0,12.3-1.9,12.3-1.9V60L232.3,61.1z"/>
		<path fill="#EEEEEE" d="M264.3,98.8c0-5.7,2.8-10,9-14.9c-2.8-1.9-4.7-5.5-4.7-9.5c0-3.1,4.8-10,4.8-10c-4.3-3.1-8.5-7.8-8.5-18.5
			c0-16.1,11.6-22,26.1-22c5.5,0,12.6,1.6,12.6,1.6l19.2-0.7v13.3l-8.5-0.7c1,1.7,2.8,4.8,2.8,8.5c0,17.5-9.2,22-26.3,22
			c-1.4,0-4-0.2-5.2-0.5c0,0-1.2,3.3-1.2,4.8c0,3.3,1.6,4.2,12.1,4.2c21.1,0,27.2,4.8,27.2,18.9c0,15.2-13.5,20.9-29.6,20.9
			C276.1,116.1,264.3,112.6,264.3,98.8z M284,89.9c-2.1,2.1-3.3,4-3.3,7.1c0,3.6,4.3,5.4,13.7,5.4c8.1,0,12.6-1.7,12.6-6.2
			c0-4.7-2.4-5.2-11.8-5.4C291.8,90.8,284,89.9,284,89.9z M300.8,45.8c0-6.1-2.8-9.2-9.5-9.2c-6.7,0-9.5,3.3-9.5,9.2
			c0,5.7,2.6,9.2,9.5,9.2C297.9,55.2,300.8,52.1,300.8,45.8z"/>
		<path fill="#EEEEEE" d="M325.9,0h16.6v17.1h-16.6V0z M325.9,25.3h16.6v62.1h-16.6V25.3z"/>
		<path fill="#EEEEEE" d="M392.1,26.3l-0.5,14.4c0,0-9.9-1-14.5-1c-11.9,0-14.2,4.2-14.2,15.9c0,13.3,2.4,17.3,14.4,17.3
			c4.7,0,14.5-1,14.5-1l0.5,14.4c0,0-13.3,2.6-20.2,2.6c-18.5,0-25.9-9.9-25.9-33.2c0-22,7.8-31.8,26.3-31.8
			C379.5,23.7,392.1,26.3,392.1,26.3z"/>
		<path fill="#EEEEEE" d="M434.5,25.3l-0.2,4c0,0-10-1.2-14.7-1.2c-15.9,0-20.9,7.3-20.9,27c0,21.4,3.3,29.6,20.9,29.6
			c4.7,0,14.9-1,14.9-1l0.2,4c0,0-10.4,1-15.2,1c-20.8,0-25.6-8.6-25.6-33.6c0-23,6.9-31,25.6-31C424.3,24,434.5,25.3,434.5,25.3z"
			/>
		<path fill="#EEEEEE" d="M444.2,87.4V25.1h4.3v5c0,0,9.7-6.1,20.4-6.1c2.8,0,5.2,0.2,7.3,0.7c4.2,0.7,6.9,2.4,9,5.4
			c1.7-0.7,13.5-6.1,23.4-6.1c17,0,20.4,6.9,20.4,31v32.3h-4.3V55.2c0-21.1-2.2-27.3-16.1-27.3c-10.9,0-20.9,5.7-21.4,6.1
			c1.7,4.7,2.2,11.6,2.2,20.9v32.3H485v-32c0-21.1-2.2-27.3-16.1-27.3c-11.1,0-20.4,6.2-20.4,6.2v53.1h-4.3V87.4z"/>
		<path fill="#EEEEEE" d="M581.2,29.9c0,0-12.6-2.1-21.1-2.1c-8,0-16.6,2.4-16.6,12.5c0,7.8,3.3,10,17.6,12.3
			c16.3,2.6,22.7,5,22.7,16.6c0,14.5-9,19-23.7,19c-7.1,0-20.6-2.1-20.6-2.1L540,82c0,0,13.5,2.1,19.7,2.1
			c11.8,0,19.4-2.8,19.4-14.7c0-9-4.5-10.7-19.4-13c-14.5-2.2-21.1-4.7-21.1-16.3c0-13.1,11.2-16.6,21.3-16.6
			c9.5,0,21.4,1.9,21.4,1.9L581.2,29.9z"/>
	</g>
	<path fill="#FF2222" d="M67.2,108.1c-18.5,0-37,0-55.5,0c3.7-7,7.3-14,11.2-21c1.3-2.2,1-3.3-1.4-4.6c-6.4-3.5-7.8-8.3-4.8-15
		c0.3-0.6,0.8-1.3,0.8-1.9c0.2-1.3,0.3-2.7-0.2-3.8c-1.1-2.2-1.9-4.3-1.4-6.9c0.3-1.4-0.2-3.2-0.8-4.6c-1-2.6-2.4-5.1-3.7-7.7
		s-3-3.8-6.1-4.3c-1.9-0.3-4.1-1.9-5.3-3.7C-0.4,33.8,1.2,31,2.5,30c4-2.7,8-5.6,12.4-7.3c10.8-4,21.8-7.8,32.8-10.8
		c8.6-2.4,17.5-3.5,26.3-4.9c1.6-0.2,4.8,1.4,4.8,1.9c-0.2,2.6,2.4,5.3-0.5,7.7c-3,2.4-3.3,5.6-2.2,8.9c1,2.9,1.3,6.1,2.6,8.6
		c2.1,4.3,1.9,9.1,1.1,13.2c-0.8,4.1,1,6.4,3.5,8.9c1.4,1.4,2.9,2.9,4.3,4.3c3.2,3.3,2.9,5.3-1.3,7.2c-1.3,0.6-3,1.9-3,2.9
		c0,4.3,0,8.6-2.1,12.6c-0.3,0.5,0.2,1.3,0.3,1.9c1.3,3.3,0.6,5.9-2.7,7.2c-4.3,1.6-8.9,3-13.4,4.1c-1.9,0.5-2.6,1.3-2.6,3.2
		C62.7,103.3,64.2,106.1,67.2,108.1z"/>
</g>
</svg>
