<svg id="Livello_1" data-name="Livello 1" xmlns="http://www.w3.org/2000/svg" viewBox="0 0 540.64 540.64"><defs><style>.cls-1{isolation:isolate;}.cls-2{fill:#941a28;}.cls-3{fill:#fff;}</style></defs><circle class="cls-2" cx="270.32" cy="270.32" r="270.32"/><g class="cls-1"><path class="cls-3" d="M138,357.05V342.59c-7.24,5.26-21.7,17.75-45.37,17.75-48,0-74.95-42.08-74.95-84.16,0-47.34,25.64-86.79,73.64-86.79,23.67,0,37.47,9.87,45.36,15.13v-71h36.16V357.05ZM96.55,324.18c24.65,0,41.42-16.44,41.42-49.31s-17.43-49.31-41.42-49.31S53.81,240,53.81,274.87C53.81,307.74,71.89,324.18,96.55,324.18Z"/><path class="cls-3" d="M271.1,189.39c49.31,0,78.9,42.41,78.9,86.79,0,41.42-26.3,84.16-78.9,84.16s-78.9-42.74-78.9-84.16C192.2,231.8,221.79,189.39,271.1,189.39Zm-32,36.75a4.48,4.48,0,0,0-6.69,3.9v44.83l.77,44.74a4.48,4.48,0,0,0,6.7,3.81L318,278.77a4.49,4.49,0,0,0,0-7.79Z"/><g class="cls-1"><path class="cls-3" d="M446.31,189.4c57.2,0,70.35,50,75,72.32H483.13c-3.29-20.38-13.48-36.16-38.13-36.16-21.37,0-39.45,16.43-39.45,49.31,0,34.84,20.05,49.31,42.08,49.31,25,0,32.87-17.75,38.79-32.88h34.19c0,27.62-24.33,69-76.27,69-45.36,0-74.95-39.45-74.95-84.16C369.39,225.23,401.61,189.4,446.31,189.4Z"/></g></g></svg>