<svg id="Livello_1" data-name="Livello 1" xmlns="http://www.w3.org/2000/svg" viewBox="0 0 180 180">
    <defs>
        <style>
            .cls-1,
            .cls-5 {
                fill: #fff;
            }

            .cls-2 {
                fill: none;
                stroke: #69afe5;
                stroke-linecap: round;
                stroke-linejoin: round;
                stroke-width: 2.2px;
            }

            .cls-3 {
                fill: #979593;
            }

            .cls-4 {
                fill: #69afe5;
            }

            .cls-5 {
                isolation: isolate;
                font-size: 24.57px;
                font-family: -apple-system, BlinkMacSystemFont, 'Segoe UI', Roboto, Oxygen, Ubuntu, Cantarell, 'Open Sans', 'Helvetica Neue', sans-serif;
                font-weight: 800;
                text-anchor: middle;
            }
        </style>
    </defs>
    <path class="cls-1"
        d="M103.3,31.6H59.6a1.32,1.32,0,0,0-1.3,1.3h0v79.3a1.32,1.32,0,0,0,1.3,1.3h61.1a1.32,1.32,0,0,0,1.3-1.3h0V50.3a3.1,3.1,0,0,0-.9-2.2L105.4,32.4A3.87,3.87,0,0,0,103.3,31.6Z" />
    <path class="cls-2" d="M82.5,69.5V48.3l20.9-5.1V64.5M82.9,55.1,103.4,50" />
    <circle class="cls-2" cx="77.6" cy="69.1" r="4.9" />
    <circle class="cls-2" cx="98.4" cy="64.7" r="4.9" />
    <path class="cls-3"
        d="M121.9,48.8,103.7,30.6a3.1,3.1,0,0,0-2.2-.9H60.3a3.12,3.12,0,0,0-3.1,3.1v79.9a3.12,3.12,0,0,0,3.1,3.1h59.4a3.12,3.12,0,0,0,3.1-3.1V50.9A3.12,3.12,0,0,0,121.9,48.8ZM102.3,32.1l18,18h-17a.94.94,0,0,1-1-1Zm17.4,81.5H60.3a.94.94,0,0,1-1-1V32.7a.94.94,0,0,1,1-1h39.9V49.1a3.12,3.12,0,0,0,3.1,3.1h17.4v60.4a1,1,0,0,1-1,1Z" />
    <rect class="cls-4" x="52.3" y="77.5" width="76.1" height="24.3" />
    <text class="cls-5" transform="translate(90.5 98.14)">MP3</text>
    <path class="cls-1" d="M102.3,32.1l18,18h-17a.94.94,0,0,1-1-1Z" />
</svg>