<?xml version="1.0" encoding="utf-8"?>
<!-- Generator: Adobe Illustrator 26.0.2, SVG Export Plug-In . SVG Version: 6.00 Build 0)  -->
<svg version="1.1" id="Livello_1" xmlns="http://www.w3.org/2000/svg" xmlns:xlink="http://www.w3.org/1999/xlink" x="0px" y="0px"
	 viewBox="0 0 180 180" style="enable-background:new 0 0 180 180;" xml:space="preserve">
<style type="text/css">
	.st0{fill:#FFFFFF;}
	.st1{fill:none;stroke:#69AFE5;stroke-width:2.2;stroke-linecap:round;stroke-linejoin:round;}
	.st2{fill:#979593;}
	.st3{fill:#69AFE5;}
	.st4{font-family:'Arial Black', Arial, Helvetica, sans-serif;}
	.st5{font-size:24.57px;}
</style>
<path class="st0" d="M103.3,31.6H59.6c-0.7,0-1.3,0.6-1.3,1.3l0,0v79.3c0,0.7,0.6,1.3,1.3,1.3c0,0,0,0,0,0h61.1
	c0.7,0,1.3-0.6,1.3-1.3v0V50.3c0-0.8-0.3-1.6-0.9-2.2l-15.7-15.7C104.8,32,104.1,31.6,103.3,31.6z"/>
<path class="st1" d="M82.5,69.5V48.3l20.9-5.1v21.3 M82.9,55.1l20.5-5.1"/>
<circle class="st1" cx="77.6" cy="69.1" r="4.9"/>
<circle class="st1" cx="98.4" cy="64.7" r="4.9"/>
<path class="st2" d="M121.9,48.8l-18.2-18.2c-0.6-0.6-1.4-0.9-2.2-0.9H60.3c-1.7,0-3.1,1.4-3.1,3.1v79.9c0,1.7,1.4,3.1,3.1,3.1h59.4
	c1.7,0,3.1-1.4,3.1-3.1V50.9C122.8,50.1,122.4,49.3,121.9,48.8z M102.3,32.1l18,18h-17c-0.6,0-1-0.4-1-1V32.1z M119.7,113.6H60.3
	c-0.6,0-1-0.4-1-1V32.7c0-0.6,0.4-1,1-1h39.9v17.4c0,1.7,1.4,3.1,3.1,3.1h17.4v60.4C120.7,113.1,120.3,113.6,119.7,113.6
	C119.7,113.6,119.7,113.6,119.7,113.6z"/>
<rect x="52.3" y="77.5" class="st3" width="76.1" height="24.3"/>
<text transform="matrix(1 0 0 1 57.724 98.14)" class="st0 st4 st5">JPEG</text>
<path class="st0" d="M102.3,32.1l18,18h-17c-0.6,0-1-0.4-1-1V32.1z"/>
</svg>
