<?xml version="1.0" encoding="utf-8"?>
<!-- Generator: Adobe Illustrator 18.1.1, SVG Export Plug-In . SVG Version: 6.00 Build 0)  -->
<svg version="1.1" id="Livello_1" xmlns="http://www.w3.org/2000/svg" xmlns:xlink="http://www.w3.org/1999/xlink" x="0px" y="0px"
	 viewBox="0 0 513 117.1" enable-background="new 0 0 513 117.1" xml:space="preserve">
<g>
	<g>
		<path fill="#EEEEEE" d="M-1,88.4V26.3h16.6v2.9c0,0,4.2-2.1,8.5-3.3c2.1-0.7,4.5-1,6.2-1c6.9,0,11.8,1.7,15.2,5.2
			c6.4-2.4,14.5-5.2,21.3-5.2c17,0,22,9.9,22,31.1v32.5H72.2V62.8c0-15.7,0.2-22.5-8.6-22.5c-5,0-11.6,2.4-11.6,2.4
			s0.5,8.6,0.5,13.5v32.2H35.8v-32c0-11.2-1-16.1-8.6-16.1c-4.2,0-11.1,2.1-11.1,2.1v46C16.1,88.4-1,88.4-1,88.4z"/>
		<path fill="#EEEEEE" d="M143.6,71.4c0.2,3.5,0.7,5.2,4.2,5.9l-0.5,12.6c-8.3,0-12.6-0.9-17.8-4.3c0,0-9,4.3-18.3,4.3
			c-13.1,0-19.4-7.3-19.4-20.4c0-14,8.1-18,21.8-19l13.3-1v-3.3c0-4.5-2.4-6.7-7.3-6.7c-8.3,0-23.4,1-23.4,1l-0.5-12.1
			c0,0,15.7-3.6,25.9-3.6c14.2,0,22,6.4,22,21.4L143.6,71.4L143.6,71.4z M115.6,62.1c-4.3,0.3-6.9,2.4-6.9,6.9
			c0,4.3,1.6,7.3,6.1,7.3c4.2,0,12.3-1.9,12.3-1.9V61L115.6,62.1z"/>
		<path fill="#EEEEEE" d="M147.6,99.8c0-5.7,2.8-10,9-14.9c-2.8-1.9-4.7-5.5-4.7-9.5c0-3.1,4.8-10,4.8-10c-4.3-3.1-8.5-7.8-8.5-18.5
			c0-16.1,11.6-22,26.1-22c5.5,0,12.6,1.6,12.6,1.6l19.2-0.7v13.3l-8.5-0.7c1,1.7,2.8,4.8,2.8,8.5c0,17.5-9.2,22-26.3,22
			c-1.4,0-4-0.2-5.2-0.5c0,0-1.2,3.3-1.2,4.8c0,3.3,1.6,4.2,12.1,4.2c21.1,0,27.2,4.8,27.2,18.9c0,15.2-13.5,20.9-29.6,20.9
			C159.3,117.1,147.6,113.6,147.6,99.8z M167.3,90.9c-2.1,2.1-3.3,4-3.3,7.1c0,3.6,4.3,5.4,13.7,5.4c8.1,0,12.6-1.7,12.6-6.2
			c0-4.7-2.4-5.2-11.8-5.4C175.1,91.8,167.3,90.9,167.3,90.9z M184.1,46.8c0-6.1-2.8-9.2-9.5-9.2c-6.7,0-9.5,3.3-9.5,9.2
			c0,5.7,2.6,9.2,9.5,9.2C181.1,56.2,184.1,53.1,184.1,46.8z"/>
		<path fill="#EEEEEE" d="M209.2,1h16.6v17.1h-16.6V1z M209.2,26.3h16.6v62.1h-16.6V26.3z"/>
		<path fill="#EEEEEE" d="M275.4,27.3l-0.5,14.4c0,0-9.9-1-14.5-1c-11.9,0-14.2,4.2-14.2,15.9c0,13.3,2.4,17.3,14.4,17.3
			c4.7,0,14.5-1,14.5-1l0.5,14.4c0,0-13.3,2.6-20.2,2.6c-18.5,0-25.9-9.9-25.9-33.2c0-22,7.8-31.8,26.3-31.8
			C262.8,24.7,275.4,27.3,275.4,27.3z"/>
		<path fill="#EEEEEE" d="M317.8,26.3l-0.2,4c0,0-10-1.2-14.7-1.2C287,29,282,36.3,282,56c0,21.4,3.3,29.6,20.9,29.6
			c4.7,0,14.9-1,14.9-1l0.2,4c0,0-10.4,1-15.2,1c-20.8,0-25.6-8.6-25.6-33.6c0-23,6.9-31,25.6-31C307.6,25,317.8,26.3,317.8,26.3z"
			/>
		<path fill="#EEEEEE" d="M327.5,88.4V26.1h4.3v5c0,0,9.7-6.1,20.4-6.1c2.8,0,5.2,0.2,7.3,0.7c4.2,0.7,6.9,2.4,9,5.4
			c1.7-0.7,13.5-6.1,23.4-6.1c17,0,20.4,6.9,20.4,31v32.3h-4.3V56.2c0-21.1-2.2-27.3-16.1-27.3c-10.9,0-20.9,5.7-21.4,6.1
			c1.7,4.7,2.2,11.6,2.2,20.9v32.3h-4.3v-32c0-21.1-2.2-27.3-16.1-27.3c-11.1,0-20.4,6.2-20.4,6.2v53.1h-4.3V88.4z"/>
		<path fill="#EEEEEE" d="M464.5,30.9c0,0-12.6-2.1-21.1-2.1c-8,0-16.6,2.4-16.6,12.5c0,7.8,3.3,10,17.6,12.3
			c16.3,2.6,22.7,5,22.7,16.6c0,14.5-9,19-23.7,19c-7.1,0-20.6-2.1-20.6-2.1l0.5-4.2c0,0,13.5,2.1,19.7,2.1
			c11.8,0,19.4-2.8,19.4-14.7c0-9-4.5-10.7-19.4-13c-14.5-2.2-21.1-4.7-21.1-16.3c0-13.1,11.2-16.6,21.3-16.6
			c9.5,0,21.4,1.9,21.4,1.9L464.5,30.9z"/>
	</g>
	<path fill="#FF2222" d="M498.7,52.6c-7.9,0-15.8,0-23.7,0c1.6-3,3.1-6,4.8-9c0.5-1,0.4-1.4-0.6-2c-2.7-1.5-3.3-3.5-2-6.4
		c0.1-0.3,0.3-0.5,0.3-0.8c0.1-0.5,0.1-1.2-0.1-1.6c-0.5-1-0.8-1.8-0.6-2.9c0.1-0.6-0.1-1.4-0.3-2c-0.4-1.1-1-2.2-1.6-3.3
		c-0.5-1.1-1.3-1.6-2.6-1.8c-0.8-0.1-1.8-0.8-2.2-1.6c-0.2-0.3,0.5-1.6,1-2c1.7-1.2,3.4-2.4,5.3-3.1c4.6-1.7,9.3-3.3,14-4.6
		c3.7-1,7.5-1.5,11.2-2.1c0.7-0.1,2,0.6,2,0.8c-0.1,1.1,1,2.2-0.2,3.3c-1.3,1-1.4,2.4-1,3.8c0.4,1.2,0.5,2.6,1.1,3.7
		c0.9,1.8,0.8,3.9,0.5,5.7c-0.3,1.8,0.4,2.7,1.5,3.8c0.6,0.6,1.2,1.2,1.8,1.8c1.4,1.4,1.2,2.2-0.5,3.1c-0.5,0.3-1.3,0.8-1.3,1.2
		c0,1.8,0,3.7-0.9,5.4c-0.1,0.2,0.1,0.5,0.1,0.8c0.5,1.4,0.3,2.5-1.2,3.1c-1.8,0.7-3.8,1.3-5.7,1.8c-0.8,0.2-1.1,0.5-1.1,1.4
		C496.8,50.6,497.4,51.8,498.7,52.6z"/>
</g>
</svg>
