<?xml version="1.0" encoding="utf-8"?>
<!-- Generator: Adobe Illustrator 18.1.1, SVG Export Plug-In . SVG Version: 6.00 Build 0)  -->
<svg version="1.1" id="Livello_1" xmlns="http://www.w3.org/2000/svg" xmlns:xlink="http://www.w3.org/1999/xlink" x="0px" y="0px"
	 viewBox="0 0 275.4 83.6" enable-background="new 0 0 275.4 83.6" xml:space="preserve">
<path fill="#BABABA" d="M152.5,80.6c-14.4,0-28.8,0-43.2,0c2.9-5.5,5.7-10.9,8.7-16.3c1-1.8,0.8-2.6-1.1-3.6c-5-2.8-6-6.4-3.8-11.7
	c0.2-0.5,0.6-1,0.7-1.5c0.1-1,0.2-2.1-0.2-2.9c-0.9-1.7-1.5-3.3-1.1-5.3c0.2-1.1-0.1-2.5-0.6-3.6c-0.8-2-1.9-3.9-2.8-5.9
	c-1-2-2.4-3-4.7-3.3c-1.5-0.2-3.2-1.5-4.1-2.9c-0.4-0.6,0.8-2.8,1.9-3.6c3.1-2.1,6.2-4.4,9.6-5.7c8.4-3.1,16.9-6.1,25.6-8.5
	C144.1,4,151,3.1,157.9,2c1.2-0.2,3.7,1.1,3.7,1.5c-0.2,2,1.8,4.1-0.4,5.9c-2.4,1.9-2.6,4.3-1.8,7c0.7,2.2,1,4.7,2,6.7
	c1.6,3.4,1.5,7,0.9,10.3c-0.6,3.3,0.8,5,2.7,6.9c1.1,1.1,2.2,2.2,3.3,3.3c2.5,2.6,2.2,4.1-1,5.6c-0.9,0.4-2.3,1.5-2.3,2.2
	c0,3.4,0,6.7-1.6,9.8c-0.2,0.4,0.1,1,0.3,1.5c1,2.7,0.4,4.5-2.2,5.5c-3.4,1.3-6.9,2.3-10.4,3.2c-1.5,0.4-2,1-2,2.5
	C149,77,150.2,79.1,152.5,80.6z"/>
<g>
	<path fill="#EEEEEE" d="M261.3,23.9c3.1,0,5.8,1.1,8,3.3c1.1,1.1,1.8,2.3,2.4,3.6c0.5,1.4,0.8,2.8,0.8,4.3c0,1.5-0.3,3-0.8,4.3
		c-0.5,1.4-1.4,2.5-2.4,3.5c-1.1,1.1-2.4,1.9-3.7,2.5c-1.4,0.5-2.8,0.8-4.3,0.8s-2.9-0.3-4.3-0.8c-1.4-0.5-2.5-1.4-3.6-2.5
		c-1.1-1.1-1.9-2.3-2.5-3.6c-0.5-1.4-0.8-2.7-0.8-4.3c0-1.5,0.3-2.9,0.8-4.3c0.5-1.4,1.4-2.6,2.5-3.6
		C255.5,25,258.2,23.9,261.3,23.9z M261.3,25.9c-2.5,0-4.7,0.9-6.4,2.7c-0.9,0.9-1.5,1.9-2,3c-0.5,1.1-0.7,2.3-0.7,3.4
		s0.3,2.4,0.7,3.4s1.2,2.1,2,3c0.9,0.9,1.9,1.5,3,2c1.1,0.5,2.3,0.7,3.4,0.7s2.4-0.3,3.4-0.7s2.2-1.2,3.1-2c1.7-1.7,2.6-3.8,2.6-6.4
		c0-1.3-0.2-2.5-0.6-3.5c-0.5-1.1-1.1-2.1-2-3C266,26.8,263.9,25.9,261.3,25.9z M261.2,33.3l-1.5,0.8c-0.2-0.4-0.4-0.5-0.5-0.7
		c-0.3-0.1-0.5-0.2-0.6-0.2c-1,0-1.5,0.6-1.5,2c0,0.6,0.1,1.1,0.4,1.5c0.3,0.4,0.6,0.5,1.1,0.5c0.6,0,1.1-0.4,1.4-1l1.4,0.7
		c-0.3,0.5-0.7,1-1.2,1.3c-0.5,0.3-1.1,0.5-1.7,0.5c-1,0-1.8-0.3-2.5-0.9c-0.6-0.6-0.9-1.5-0.9-2.5c0-1.1,0.3-1.9,0.9-2.5
		c0.6-0.6,1.4-0.9,2.4-0.9C259.6,31.6,260.6,32.2,261.2,33.3z M267.6,33.3l-1.5,0.8c-0.2-0.4-0.4-0.5-0.5-0.7
		c-0.3-0.1-0.5-0.2-0.6-0.2c-1,0-1.5,0.6-1.5,2c0,0.6,0.1,1.1,0.4,1.5s0.6,0.5,1.1,0.5c0.6,0,1.1-0.4,1.4-1l1.4,0.7
		c-0.3,0.5-0.7,1-1.3,1.3c-0.5,0.3-1.1,0.5-1.7,0.5c-1,0-1.8-0.3-2.5-0.9c-0.6-0.6-0.9-1.5-0.9-2.5c0-1.1,0.3-1.9,0.9-2.5
		c0.6-0.6,1.4-0.9,2.4-0.9C266.1,31.6,267.1,32.2,267.6,33.3z"/>
</g>
<g>
	<path fill="#EEEEEE" d="M2,57.4V24.8h8.7v1.5c0,0,2.2-1.1,4.4-1.7c1.1-0.4,2.4-0.5,3.3-0.5c3.6,0,6.2,0.9,8,2.7
		c3.4-1.3,7.6-2.7,11.2-2.7c8.9,0,11.5,5.2,11.5,16.3v17.1h-8.7V44c0-8.3,0.1-11.8-4.5-11.8c-2.6,0-6.1,1.3-6.1,1.3S30,38,30,40.5
		v16.9h-8.7V40.6c0-5.9-0.5-8.4-4.5-8.4c-2.2,0-5.8,1.1-5.8,1.1v24.1C11,57.4,2,57.4,2,57.4z"/>
	<path fill="#EEEEEE" d="M77.9,48.5c0.1,1.8,0.4,2.7,2.2,3.1l-0.3,6.6c-4.4,0-6.6-0.5-9.3-2.3c0,0-4.7,2.3-9.6,2.3
		c-6.9,0-10.2-3.8-10.2-10.7c0-7.4,4.3-9.4,11.4-10l7-0.5v-1.7c0-2.4-1.3-3.5-3.8-3.5c-4.4,0-12.3,0.5-12.3,0.5l-0.3-6.4
		c0,0,8.3-1.9,13.6-1.9c7.4,0,11.5,3.4,11.5,11.3L77.9,48.5L77.9,48.5z M63.2,43.6c-2.3,0.2-3.6,1.3-3.6,3.6c0,2.3,0.8,3.8,3.2,3.8
		c2.2,0,6.4-1,6.4-1v-7L63.2,43.6z"/>
	<path fill="#EEEEEE" d="M80,63.4c0-3,1.5-5.3,4.7-7.8c-1.5-1-2.5-2.9-2.5-5c0-1.6,2.5-5.3,2.5-5.3c-2.3-1.6-4.4-4.1-4.4-9.7
		c0-8.4,6.1-11.5,13.7-11.5c2.9,0,6.6,0.8,6.6,0.8l10.1-0.4v7l-4.4-0.4c0.5,0.9,1.5,2.5,1.5,4.4c0,9.2-4.8,11.5-13.8,11.5
		c-0.7,0-2.1-0.1-2.7-0.3c0,0-0.6,1.7-0.6,2.5c0,1.7,0.8,2.2,6.4,2.2c11.1,0,14.3,2.5,14.3,9.9c0,8-7.1,11-15.5,11
		C86.1,72.5,80,70.7,80,63.4z M90.3,58.8c-1.1,1.1-1.7,2.1-1.7,3.7c0,1.9,2.3,2.8,7.2,2.8c4.3,0,6.6-0.9,6.6-3.3
		c0-2.5-1.3-2.7-6.2-2.8C94.4,59.2,90.3,58.8,90.3,58.8z M99.1,35.6c0-3.2-1.5-4.8-5-4.8c-3.5,0-5,1.7-5,4.8c0,3,1.4,4.8,5,4.8
		C97.6,40.5,99.1,38.9,99.1,35.6z"/>
	<path fill="#EEEEEE" d="M112.3,11.6h8.7v9h-8.7V11.6z M112.3,24.8h8.7v32.6h-8.7V24.8z"/>
	<path fill="#EEEEEE" d="M147.1,25.4l-0.3,7.5c0,0-5.2-0.5-7.6-0.5c-6.3,0-7.4,2.2-7.4,8.4c0,7,1.3,9.1,7.5,9.1
		c2.5,0,7.6-0.5,7.6-0.5l0.3,7.5c0,0-7,1.4-10.6,1.4c-9.7,0-13.6-5.2-13.6-17.4c0-11.5,4.1-16.7,13.8-16.7
		C140.4,24,147.1,25.4,147.1,25.4z"/>
	<path fill="#EEEEEE" d="M169.3,24.8l-0.1,2.1c0,0-5.3-0.6-7.7-0.6c-8.4,0-11,3.8-11,14.2c0,11.3,1.7,15.5,11,15.5
		c2.5,0,7.8-0.5,7.8-0.5l0.1,2.1c0,0-5.4,0.5-8,0.5c-10.9,0-13.4-4.5-13.4-17.6c0-12.1,3.6-16.2,13.4-16.2
		C163.9,24.2,169.3,24.8,169.3,24.8z"/>
	<path fill="#EEEEEE" d="M174.4,57.4V24.7h2.3v2.6c0,0,5.1-3.2,10.7-3.2c1.5,0,2.7,0.1,3.8,0.4c2.2,0.4,3.6,1.3,4.7,2.8
		c0.9-0.4,7.1-3.2,12.3-3.2c8.9,0,10.7,3.6,10.7,16.2v17h-2.3V40.5c0-11.1-1.2-14.3-8.4-14.3c-5.7,0-11,3-11.3,3.2
		c0.9,2.5,1.2,6.1,1.2,11v17h-2.3V40.5c0-11.1-1.2-14.3-8.4-14.3c-5.8,0-10.7,3.3-10.7,3.3v27.9L174.4,57.4L174.4,57.4z"/>
	<path fill="#EEEEEE" d="M246.3,27.3c0,0-6.6-1.1-11.1-1.1c-4.2,0-8.7,1.3-8.7,6.5c0,4.1,1.7,5.3,9.3,6.4c8.5,1.4,11.9,2.6,11.9,8.7
		c0,7.6-4.7,10-12.4,10c-3.7,0-10.8-1.1-10.8-1.1l0.3-2.2c0,0,7.1,1.1,10.3,1.1c6.2,0,10.2-1.5,10.2-7.7c0-4.7-2.4-5.6-10.2-6.8
		c-7.6-1.2-11.1-2.5-11.1-8.5c0-6.9,5.9-8.7,11.2-8.7c5,0,11.3,1,11.3,1L246.3,27.3z"/>
</g>
</svg>
