<?xml version="1.0" encoding="utf-8"?>
<!-- Generator: Adobe Illustrator 18.1.1, SVG Export Plug-In . SVG Version: 6.00 Build 0)  -->
<svg version="1.1" id="Livello_1" xmlns="http://www.w3.org/2000/svg" xmlns:xlink="http://www.w3.org/1999/xlink" x="0px" y="0px"
	 viewBox="0 0 370 69.9" enable-background="new 0 0 370 69.9" xml:space="preserve">
<g>
	<g>
		<path fill="#EEEEEE" d="M352.6,16.4c3.4,0,6.4,1.2,8.8,3.6c1.2,1.2,2,2.5,2.6,4c0.6,1.5,0.9,3.1,0.9,4.7c0,1.7-0.3,3.3-0.9,4.7
			c-0.6,1.5-1.5,2.8-2.6,3.9c-1.2,1.2-2.6,2.1-4.1,2.7c-1.5,0.6-3.1,0.9-4.7,0.9c-1.6,0-3.2-0.3-4.7-0.9c-1.5-0.6-2.8-1.5-4-2.7
			c-1.2-1.2-2.1-2.5-2.7-4c-0.6-1.5-0.9-3-0.9-4.7c0-1.6,0.3-3.2,0.9-4.7c0.6-1.5,1.5-2.9,2.7-4C346.3,17.6,349.2,16.4,352.6,16.4z
			 M352.7,18.6c-2.8,0-5.2,1-7.1,3c-1,1-1.7,2.1-2.2,3.3c-0.5,1.2-0.8,2.5-0.8,3.8c0,1.3,0.3,2.6,0.8,3.8c0.5,1.2,1.3,2.3,2.2,3.3
			c1,1,2.1,1.7,3.3,2.2c1.2,0.5,2.5,0.8,3.8,0.8c1.3,0,2.6-0.3,3.8-0.8c1.2-0.5,2.4-1.3,3.4-2.2c1.9-1.9,2.9-4.2,2.9-7.1
			c0-1.4-0.2-2.7-0.7-3.9c-0.5-1.2-1.2-2.3-2.2-3.3C357.8,19.6,355.5,18.6,352.7,18.6z M352.5,26.7l-1.7,0.9
			c-0.2-0.4-0.4-0.6-0.6-0.8c-0.3-0.1-0.5-0.2-0.7-0.2c-1.1,0-1.7,0.7-1.7,2.2c0,0.7,0.1,1.2,0.4,1.6c0.3,0.4,0.7,0.6,1.2,0.6
			c0.7,0,1.2-0.4,1.5-1.1l1.5,0.8c-0.3,0.6-0.8,1.1-1.3,1.4c-0.6,0.3-1.2,0.5-1.9,0.5c-1.1,0-2-0.3-2.7-1c-0.7-0.7-1-1.6-1-2.8
			c0-1.2,0.3-2.1,1-2.8c0.7-0.7,1.5-1,2.6-1C350.8,24.9,351.9,25.5,352.5,26.7z M359.6,26.7l-1.6,0.9c-0.2-0.4-0.4-0.6-0.6-0.8
			c-0.3-0.1-0.5-0.2-0.7-0.2c-1.1,0-1.7,0.7-1.7,2.2c0,0.7,0.1,1.2,0.4,1.6c0.3,0.4,0.7,0.6,1.2,0.6c0.7,0,1.2-0.4,1.5-1.1l1.5,0.8
			c-0.3,0.6-0.8,1.1-1.4,1.4c-0.6,0.3-1.2,0.5-1.9,0.5c-1.1,0-2-0.3-2.7-1c-0.7-0.7-1-1.6-1-2.8c0-1.2,0.3-2.1,1-2.8
			c0.7-0.7,1.5-1,2.6-1C357.9,24.9,359,25.5,359.6,26.7z"/>
	</g>
	<g>
		<path fill="#EEEEEE" d="M67,53.3V17.4h9.6v1.7c0,0,2.4-1.2,4.9-1.9c1.2-0.4,2.6-0.6,3.6-0.6c4,0,6.8,1,8.8,3c3.7-1.4,8.4-3,12.3-3
			c9.8,0,12.7,5.7,12.7,18v18.8h-9.6V38.5c0-9.1,0.1-13-5-13c-2.9,0-6.7,1.4-6.7,1.4s0.3,5,0.3,7.8v18.6h-9.6V34.8
			c0-6.5-0.6-9.3-5-9.3c-2.4,0-6.4,1.2-6.4,1.2v26.6H67z"/>
		<path fill="#EEEEEE" d="M150.6,43.5c0.1,2,0.4,3,2.4,3.4l-0.3,7.3c-4.8,0-7.3-0.5-10.3-2.5c0,0-5.2,2.5-10.6,2.5
			c-7.6,0-11.2-4.2-11.2-11.8c0-8.1,4.7-10.4,12.6-11l7.7-0.6v-1.9c0-2.6-1.4-3.9-4.2-3.9c-4.8,0-13.5,0.6-13.5,0.6l-0.3-7
			c0,0,9.1-2.1,15-2.1c8.2,0,12.7,3.7,12.7,12.4V43.5z M134.4,38.1c-2.5,0.2-4,1.4-4,4c0,2.5,0.9,4.2,3.5,4.2c2.4,0,7.1-1.1,7.1-1.1
			v-7.7L134.4,38.1z"/>
		<path fill="#EEEEEE" d="M152.9,59.9c0-3.3,1.6-5.8,5.2-8.6c-1.6-1.1-2.7-3.2-2.7-5.5c0-1.8,2.8-5.8,2.8-5.8
			c-2.5-1.8-4.9-4.5-4.9-10.7c0-9.3,6.7-12.7,15.1-12.7c3.2,0,7.3,0.9,7.3,0.9l11.1-0.4v7.7l-4.9-0.4c0.6,1,1.6,2.8,1.6,4.9
			c0,10.1-5.3,12.7-15.2,12.7c-0.8,0-2.3-0.1-3-0.3c0,0-0.7,1.9-0.7,2.8c0,1.9,0.9,2.4,7,2.4c12.2,0,15.7,2.8,15.7,10.9
			c0,8.8-7.8,12.1-17.1,12.1C159.7,69.9,152.9,67.9,152.9,59.9z M164.3,54.8c-1.2,1.2-1.9,2.3-1.9,4.1c0,2.1,2.5,3.1,7.9,3.1
			c4.7,0,7.3-1,7.3-3.6c0-2.7-1.4-3-6.8-3.1C168.8,55.3,164.3,54.8,164.3,54.8z M174,29.3c0-3.5-1.6-5.3-5.5-5.3
			c-3.9,0-5.5,1.9-5.5,5.3c0,3.3,1.5,5.3,5.5,5.3C172.3,34.7,174,32.9,174,29.3z"/>
		<path fill="#EEEEEE" d="M188.5,2.8h9.6v9.9h-9.6V2.8z M188.5,17.4h9.6v35.9h-9.6V17.4z"/>
		<path fill="#EEEEEE" d="M226.8,18l-0.3,8.3c0,0-5.7-0.6-8.4-0.6c-6.9,0-8.2,2.4-8.2,9.2c0,7.7,1.4,10,8.3,10
			c2.7,0,8.4-0.6,8.4-0.6l0.3,8.3c0,0-7.7,1.5-11.7,1.5c-10.7,0-15-5.7-15-19.2c0-12.7,4.5-18.4,15.2-18.4
			C219.5,16.5,226.8,18,226.8,18z"/>
		<path fill="#EEEEEE" d="M251.3,17.4l-0.1,2.3c0,0-5.8-0.7-8.5-0.7c-9.2,0-12.1,4.2-12.1,15.6c0,12.4,1.9,17.1,12.1,17.1
			c2.7,0,8.6-0.6,8.6-0.6l0.1,2.3c0,0-6,0.6-8.8,0.6c-12,0-14.8-5-14.8-19.4c0-13.3,4-17.9,14.8-17.9
			C245.4,16.7,251.3,17.4,251.3,17.4z"/>
		<path fill="#EEEEEE" d="M256.9,53.3v-36h2.5v2.9c0,0,5.6-3.5,11.8-3.5c1.6,0,3,0.1,4.2,0.4c2.4,0.4,4,1.4,5.2,3.1
			c1-0.4,7.8-3.5,13.5-3.5c9.8,0,11.8,4,11.8,17.9v18.7h-2.5V34.7c0-12.2-1.3-15.8-9.3-15.8c-6.3,0-12.1,3.3-12.4,3.5
			c1,2.7,1.3,6.7,1.3,12.1v18.7h-2.5V34.7c0-12.2-1.3-15.8-9.3-15.8c-6.4,0-11.8,3.6-11.8,3.6v30.7H256.9z"/>
		<path fill="#EEEEEE" d="M336.1,20.1c0,0-7.3-1.2-12.2-1.2c-4.6,0-9.6,1.4-9.6,7.2c0,4.5,1.9,5.8,10.2,7.1
			c9.4,1.5,13.1,2.9,13.1,9.6c0,8.4-5.2,11-13.7,11c-4.1,0-11.9-1.2-11.9-1.2l0.3-2.4c0,0,7.8,1.2,11.4,1.2c6.8,0,11.2-1.6,11.2-8.5
			c0-5.2-2.6-6.2-11.2-7.5c-8.4-1.3-12.2-2.7-12.2-9.4c0-7.6,6.5-9.6,12.3-9.6c5.5,0,12.4,1.1,12.4,1.1L336.1,20.1z"/>
	</g>
	<path fill="#FF2222" d="M45.1,67.8c-11.6,0-23.2,0-34.8,0c2.3-4.4,4.6-8.8,7-13.2c0.8-1.4,0.6-2.1-0.9-2.9c-4-2.2-4.9-5.2-3-9.4
		c0.2-0.4,0.5-0.8,0.5-1.2c0.1-0.8,0.2-1.7-0.1-2.4c-0.7-1.4-1.2-2.7-0.9-4.3c0.2-0.9-0.1-2-0.5-2.9c-0.6-1.6-1.5-3.2-2.3-4.8
		c-0.8-1.6-1.9-2.4-3.8-2.7c-1.2-0.2-2.6-1.2-3.3-2.3c-0.3-0.5,0.7-2.3,1.5-2.9c2.5-1.7,5-3.5,7.8-4.6c6.8-2.5,13.7-4.9,20.6-6.8
		c5.4-1.5,11-2.2,16.5-3.1c1-0.1,3,0.9,3,1.2c-0.1,1.6,1.5,3.3-0.3,4.8c-1.9,1.5-2.1,3.5-1.4,5.6c0.6,1.8,0.8,3.8,1.6,5.4
		c1.3,2.7,1.2,5.7,0.7,8.3c-0.5,2.6,0.6,4,2.2,5.6c0.9,0.9,1.8,1.8,2.7,2.7c2,2.1,1.8,3.3-0.8,4.5c-0.8,0.4-1.9,1.2-1.9,1.8
		c0,2.7,0,5.4-1.3,7.9c-0.2,0.3,0.1,0.8,0.2,1.2c0.8,2.1,0.4,3.7-1.7,4.5c-2.7,1-5.6,1.9-8.4,2.6c-1.2,0.3-1.6,0.8-1.6,2
		C42.3,64.8,43.2,66.5,45.1,67.8z"/>
</g>
</svg>
