<?xml version="1.0" encoding="utf-8"?>
<!-- Generator: Adobe Illustrator 23.0.1, SVG Export Plug-In . SVG Version: 6.00 Build 0)  -->
<!DOCTYPE svg PUBLIC "-//W3C//DTD SVG 1.1//EN" "http://www.w3.org/Graphics/SVG/1.1/DTD/svg11.dtd" [
	<!ENTITY ns_extend "http://ns.adobe.com/Extensibility/1.0/">
	<!ENTITY ns_ai "http://ns.adobe.com/AdobeIllustrator/10.0/">
	<!ENTITY ns_graphs "http://ns.adobe.com/Graphs/1.0/">
	<!ENTITY ns_vars "http://ns.adobe.com/Variables/1.0/">
	<!ENTITY ns_imrep "http://ns.adobe.com/ImageReplacement/1.0/">
	<!ENTITY ns_sfw "http://ns.adobe.com/SaveForWeb/1.0/">
	<!ENTITY ns_custom "http://ns.adobe.com/GenericCustomNamespace/1.0/">
	<!ENTITY ns_adobe_xpath "http://ns.adobe.com/XPath/1.0/">
]>
<svg version="1.1" id="Layer_1" xmlns:x="&ns_extend;" xmlns:i="&ns_ai;" xmlns:graph="&ns_graphs;"
	 xmlns="http://www.w3.org/2000/svg" xmlns:xlink="http://www.w3.org/1999/xlink" x="0px" y="0px" viewBox="0 0 256.4 250"
	 style="enable-background:new 0 0 256.4 250;" xml:space="preserve">
<style type="text/css">
	.st0{fill:#001E36;}
	.st1{fill:#31A8FF;}
</style>
<metadata>
	<sfw  xmlns="&ns_sfw;">
		<slices></slices>
		<sliceSourceBounds  bottomLeftOrigin="true" height="250" width="256.4" x="-8.2" y="-8"></sliceSourceBounds>
	</sfw>
</metadata>
<g id="Layer_2_1_">
	<path class="st0" d="M45.4,0H211c25.1,0,45.4,20.3,45.4,45.4v159.2c0,25.1-20.3,45.4-45.4,45.4H45.4C20.3,250,0,229.7,0,204.6V45.4
		C0,20.3,20.3,0,45.4,0z"/>
	<g id="PsX">
		<path class="st1" d="M86.5,76.3c-3.5-3.8-8-6.8-12.9-8.8c-5.3-2.1-12-3.3-19.8-3.3c-2.9,0-5.8,0-8.8,0.1c-3,0.1-5.8,0.1-8.3,0.2
			c-2.7,0.1-5.1,0.1-7.4,0.2c-2.2,0.1-4.3,0.1-5.9,0.1c-0.6,0-1,0.4-1,1.2v109.3c0,1,0.3,1.4,1.1,1.4h18.9c1,0,1.4-0.5,1.4-1.5
			v-33.3c1.8,0,3.2,0,4.2,0.1c1,0.1,2.6,0.1,4.8,0.1c7.4,0.1,14.7-1.3,21.7-4.1c6.4-2.6,11.8-7.2,15.5-12.9c3.8-6,5.8-13.6,5.8-22.6
			c0-4.7-0.7-9.4-2.1-13.9C92.1,84,89.7,79.8,86.5,76.3z M71.7,113.8c-2,2.7-4.8,4.6-7.9,5.7c-3.5,1.2-7.3,1.8-11.1,1.7h-5.1
			c-1.2,0-2.4-0.1-3.7-0.2V85.5c1.3-0.1,2.7-0.2,4-0.2c1.9-0.1,4.1-0.1,6.6-0.1c3.8-0.1,7.7,0.6,11.3,2.1c2.8,1.3,5.1,3.4,6.7,6.1
			c1.6,2.9,2.4,6.2,2.2,9.5C74.7,107.5,73.7,111.1,71.7,113.8z"/>
		<path class="st1" d="M145.6,131.3c-4.6-3.2-9.5-5.9-14.7-7.8c-2.4-1.1-4.6-2.2-6.8-3.5c-1.3-0.7-2.4-1.7-3.2-2.9
			c-0.5-0.9-0.9-1.7-1-2.8c0-1.1,0.2-2,0.7-2.9c0.7-1.1,1.8-1.8,3-2.1c1.9-0.5,3.8-0.9,5.8-0.7c3.6,0,7.3,0.4,10.8,1.4
			c3.1,0.7,6,1.9,8.7,3.6c0.3,0.2,0.7,0.2,1.1,0c0.3-0.2,0.5-0.6,0.4-1.1V95.2c0-0.4,0-0.9-0.1-1.3c-0.1-0.4-0.5-0.7-1-1
			c-2.4-1.3-4.9-2.1-7.5-2.5c-4-0.6-7.9-1-12-1c-6.8,0-12.5,1.3-17,3.7c-4.3,2.2-7.7,5.7-10,9.8c-2.1,4-3.3,8.4-3.2,12.9
			c0,3.7,0.7,7.5,2.2,10.9c1.7,3.5,4.2,6.6,7.3,9c4.2,3.2,8.8,5.9,13.7,7.7c4.7,1.9,7.9,3.6,9.4,5c1.4,1.1,2.2,2.6,2.4,4.3
			c0.1,1.8-1,3.5-2.6,4.5c-1.7,1.1-4.4,1.5-8,1.5c-3.8-0.1-7.6-0.6-11.3-1.6c-4-1.1-7.7-2.9-11-5.2c-0.2-0.2-0.5-0.2-0.9-0.1
			c-0.3,0.2-0.4,0.5-0.4,1v18.6c0,0.9,0.3,1.6,1.1,2c2.8,1.6,5.8,2.8,8.9,3.4c4.3,1,8.7,1.4,13,1.4c6.9,0,12.7-1.2,17.4-3.4
			c4.5-2,8.2-5.3,10.8-9.5c2.6-4.3,3.8-9.2,3.7-14.2c0.1-3.7-0.7-7.6-2.2-11C151.5,136.6,148.8,133.7,145.6,131.3z"/>
		<path class="st1" d="M233.7,173.8l-27.4-49.3l25.5-46.4c0.4-0.5,0.5-1.2,0.2-1.7c-0.3-0.6-0.9-1-1.6-0.9h-18.2
			c-0.5-0.1-1.1,0.1-1.6,0.4c-0.3,0.3-0.6,0.7-0.7,1.3c-1.8,4.1-3.8,7.6-5.8,11.6c-2,4.1-4,8.1-5.8,12.1c-1.7,3.5-3.4,7.3-5,11
			c-1.6-3.6-3.3-7.3-5.1-10.8c-2.1-4.1-4.2-8.1-6.2-12.2c-2-4.1-3.8-7.7-5.6-12c-0.5-1-1.6-1.5-2.7-1.4h-19.6
			c-0.5,0-1.1,0.2-1.4,0.6c-0.3,0.5-0.3,1.3,0.1,1.7l25.9,48.1l-26.5,47.8c-0.3,0.4-0.4,1-0.3,1.5c0,0.7,0.6,1.3,1.4,1.3h18.9
			c1.2,0,2.2-0.6,2.6-1.8c2-4.1,4.1-7.5,6-11.5s3.8-8.1,5.9-12.2c1.7-3.6,3.5-7.4,5.1-11c1.8,3.7,3.6,7.5,5.6,11.2
			c2,4.1,4.1,8.1,5.9,12.1s3.7,7.4,5.6,11.3c0.7,1.3,2.1,2,3.5,1.9h19.8c0.7,0,1.4-0.5,1.5-1.2C234,174.9,233.9,174.3,233.7,173.8z"
			/>
	</g>
</g>
</svg>
