<svg id="Livello_1" data-name="Livello 1" xmlns="http://www.w3.org/2000/svg" viewBox="0 0 180 180"><defs><style>.cls-1,.cls-7{fill:#fff;}.cls-2{fill:#979593;}.cls-3,.cls-4,.cls-5{fill:#039b03;fill-rule:evenodd;}.cls-4,.cls-5{isolation:isolate;}.cls-4{opacity:0.6;}.cls-5{opacity:0.3;}.cls-6{fill:#fc3406;}.cls-7{font-size:24.57px;font-family:Arial-Black, Arial;font-weight:800;}</style></defs><path class="cls-1" d="M103.27,31.65H59.56a1.3,1.3,0,0,0-1.3,1.3v79.3a1.3,1.3,0,0,0,1.3,1.3h61.11a1.3,1.3,0,0,0,1.3-1.3V50.35a3,3,0,0,0-.89-2.15L105.41,32.54A3,3,0,0,0,103.27,31.65Z"/><path class="cls-2" d="M121.86,48.75,103.61,30.5a3,3,0,0,0-2.17-.9H60.31a3.08,3.08,0,0,0-3.07,3.07v79.86a3.08,3.08,0,0,0,3.07,3.07h59.38a3.08,3.08,0,0,0,3.07-3.07V50.92A3,3,0,0,0,121.86,48.75ZM102.29,32.07l18,18h-17a1,1,0,0,1-1-1Zm17.4,81.48H60.31a1,1,0,0,1-1-1V32.67a1,1,0,0,1,1-1h39.93v17.4a3.07,3.07,0,0,0,3.07,3.07h17.4v60.41A1,1,0,0,1,119.69,113.55Z"/><path id="path7031" class="cls-3" d="M82.69,67.18l-.4,3.55-1.84.82-2.88-2.33-2.42,2.47,2.31,2.91-.84,1.74-3.49.45S73,79.66,73,80.26c1.07,0,3.55.51,3.55.51l.81,1.79-2.29,2.8,2.42,2.55,2.8-2.26,1.79.89.53,3.23,3.47.18s.25-3.28.61-3.39,1.85-.82,1.85-.82l2.67,2.15a20.34,20.34,0,0,0,2.3-2.57,23.79,23.79,0,0,0-2-2.53,16.75,16.75,0,0,0,.83-1.89,18.39,18.39,0,0,1,3.33-.56l.1-3.44a21.13,21.13,0,0,1-3.46-.51c-.09-.21-.49-1.32-.79-1.94.64-.71,2.21-2.68,2.21-2.68l-2.46-2.39-2.76,2.13-1.89-.83-.44-3.4Zm1.69,7.75a3.64,3.64,0,1,1-3.63,3.63A3.64,3.64,0,0,1,84.38,74.93Z"/><path id="path8974" class="cls-4" d="M107.83,58.86l-3.42,1-1.48-1.37L104,55l-3.22-1.26L99,57,97,56.86l-1.77-3s-2.71,1-3.25,1.24c.37,1,.92,3.47.92,3.47L91.59,60l-3.46-1-1.41,3.22,3.17,1.69-.12,2L87,67.61l1.19,3.27s3.11-1,3.36-.76S93,71.51,93,71.51L92.1,74.8a21,21,0,0,0,3.26,1.12,22.75,22.75,0,0,0,1.55-2.84,17.2,17.2,0,0,0,2.07,0A18.64,18.64,0,0,1,100.79,76L104,74.7a21.65,21.65,0,0,1-.88-3.38c.16-.16,1-1,1.48-1.48.91.31,3.33,1,3.33,1l1.24-3.19-3-1.71V63.85l3-1.74Zm-6.47,4.59a3.64,3.64,0,1,1-4.76-1.92A3.63,3.63,0,0,1,101.36,63.45Z"/><path id="path8976" class="cls-5" d="M82.69,39.81l-.4,3.55-1.84.82-2.88-2.33-2.42,2.46,2.31,2.92L76.62,49l-3.49.44S73,52.28,73,52.88c1.07.06,3.55.51,3.55.51l.81,1.8L75.07,58l2.42,2.55,2.8-2.25,1.79.89.53,3.22,3.47.18s.25-3.27.61-3.39,1.85-.82,1.85-.82l2.67,2.16A21.06,21.06,0,0,0,93.51,58a23.79,23.79,0,0,0-2-2.53,17.6,17.6,0,0,0,.83-1.89A18.39,18.39,0,0,1,95.67,53l.1-3.44A22.26,22.26,0,0,1,92.31,49c-.09-.21-.49-1.32-.79-1.94.64-.72,2.21-2.68,2.21-2.68L91.27,42l-2.76,2.12-1.89-.82-.44-3.41Zm1.69,7.74a3.65,3.65,0,1,1-3.63,3.64A3.65,3.65,0,0,1,84.38,47.55Z"/><path class="cls-6" d="M124.7,101.34H55.3V77.64h69.4Z"/><text class="cls-7" transform="translate(63.38 98.14)">PDF</text></svg>