<svg id="Livello_1" data-name="Livello 1" xmlns="http://www.w3.org/2000/svg" viewBox="0 0 180 180"><defs><style>.cls-1{fill:#fff;}.cls-2{fill:#979593;}.cls-3{fill:#c8c6c4;}.cls-4,.cls-5{fill:none;stroke:#69afe5;stroke-linecap:round;stroke-width:2.05px;}.cls-4{stroke-miterlimit:10;}.cls-5{stroke-linejoin:round;}</style></defs><path class="cls-1" d="M103.27,31.65H59.56a1.3,1.3,0,0,0-1.3,1.3v79.3a1.3,1.3,0,0,0,1.3,1.3h61.11a1.3,1.3,0,0,0,1.3-1.3V50.35a3,3,0,0,0-.89-2.15L105.41,32.54A3,3,0,0,0,103.27,31.65Z"/><path class="cls-2" d="M121.86,48.75,103.61,30.5a3,3,0,0,0-2.17-.9H60.31a3.08,3.08,0,0,0-3.07,3.07v79.86a3.08,3.08,0,0,0,3.07,3.07h59.38a3.08,3.08,0,0,0,3.07-3.07V50.92A3,3,0,0,0,121.86,48.75ZM102.29,32.07l18,18h-17a1,1,0,0,1-1-1Zm17.4,81.48H60.31a1,1,0,0,1-1-1V32.67a1,1,0,0,1,1-1h39.93v17.4a3.07,3.07,0,0,0,3.07,3.07h17.4v60.41A1,1,0,0,1,119.69,113.55Z"/><path class="cls-3" d="M113.55,96.15H66.45a1,1,0,0,1-1-1h0a1,1,0,0,1,1-1h47.1a1,1,0,0,1,1,1h0A1,1,0,0,1,113.55,96.15Zm0,6.14H66.45a1,1,0,0,1-1-1h0a1,1,0,0,1,1-1h47.1a1,1,0,0,1,1,1h0A1,1,0,0,1,113.55,102.29Z"/><path class="cls-4" d="M96.14,58.27,83.86,89"/><path class="cls-5" d="M105.36,66.46l8.19,7.11-8.19,7.22m-30.72,0-8.19-7.11,8.19-7.22"/></svg>