<svg id="Livello_1" data-name="Livello 1" xmlns="http://www.w3.org/2000/svg" viewBox="0 0 180 180"><defs><style>.cls-1,.cls-4{fill:#fff;}.cls-2{fill:#979593;}.cls-3{fill:#69afe5;}.cls-4{font-size:24.57px;font-family:Arial-Black, Arial;font-weight:800;}.cls-5,.cls-6{fill:none;stroke:#69afe5;stroke-linecap:round;stroke-linejoin:round;}.cls-5{stroke-width:2.05px;}.cls-6{stroke-width:2px;}</style></defs><path class="cls-1" d="M103.41,31.34H59.7a1.3,1.3,0,0,0-1.3,1.3V112a1.3,1.3,0,0,0,1.3,1.3h61.1a1.3,1.3,0,0,0,1.3-1.3V50a3.06,3.06,0,0,0-.88-2.14L105.55,32.23A3,3,0,0,0,103.41,31.34Z"/><path class="cls-2" d="M121.86,48.75,103.61,30.5a3,3,0,0,0-2.17-.9H60.31a3.08,3.08,0,0,0-3.07,3.07v79.86a3.08,3.08,0,0,0,3.07,3.07h59.38a3.08,3.08,0,0,0,3.07-3.07V50.92A3,3,0,0,0,121.86,48.75ZM102.29,32.07l18,18h-17a1,1,0,0,1-1-1Zm17.4,81.48H60.31a1,1,0,0,1-1-1V32.67a1,1,0,0,1,1-1h39.93v17.4a3.07,3.07,0,0,0,3.07,3.07h17.4v60.41A1,1,0,0,1,119.69,113.55Z"/><path class="cls-3" d="M124.7,101.85H55.3V78.15h69.4Z"/><text class="cls-4" transform="translate(63.38 98.64)">PDF</text><path class="cls-3" d="M63,63.48c2.15,0,2.46-1.18,2.46-2.24a18.35,18.35,0,0,0-.25-2.55A17.9,17.9,0,0,1,65,56.17c0-2.79,1.82-4,4.4-4H70v1.67h-.55c-1.79,0-2.4,1-2.4,2.61a12.45,12.45,0,0,0,.22,2.15,14.37,14.37,0,0,1,.21,2.31c0,1.94-.82,2.91-2.19,3.27v.06c1.37.34,2.22,1.37,2.19,3.31a13.84,13.84,0,0,1-.21,2.3,12.8,12.8,0,0,0-.22,2.19c0,1.7.7,2.64,2.4,2.64H70v1.67h-.64c-2.52,0-4.4-1.1-4.4-4.16a17.49,17.49,0,0,1,.24-2.49,17.1,17.1,0,0,0,.25-2.45c0-.94-.31-2.25-2.46-2.25Z"/><path class="cls-3" d="M82.16,65c-2.15,0-2.45,1.31-2.45,2.25A17.07,17.07,0,0,0,80,69.73a17.49,17.49,0,0,1,.24,2.49c0,3.06-1.91,4.16-4.4,4.16h-.63V74.71h.51c1.7,0,2.43-.94,2.43-2.64a18.62,18.62,0,0,0-.21-2.19,12.76,12.76,0,0,1-.25-2.3c0-1.94.85-3,2.19-3.31v-.06c-1.34-.36-2.19-1.33-2.19-3.27a13.28,13.28,0,0,1,.25-2.31,18.16,18.16,0,0,0,.21-2.15c0-1.64-.64-2.58-2.4-2.61h-.54V52.2h.6c2.58,0,4.43,1.18,4.43,4A17.9,17.9,0,0,1,80,58.69a18.33,18.33,0,0,0-.24,2.55c0,1.06.3,2.24,2.45,2.24Z"/><path class="cls-5" d="M107.36,57.12l8.19,7.12-8.19,7.21m-13.72,0-8.19-7.11,8.19-7.22"/><line class="cls-6" x1="97.57" y1="72.4" x2="104.02" y2="56.17"/></svg>