<svg id="Livello_1" data-name="Livello 1" xmlns="http://www.w3.org/2000/svg" xmlns:xlink="http://www.w3.org/1999/xlink" viewBox="0 0 180 180"><defs><style>.cls-1{fill:#ffb900;}.cls-2{fill:#ffd75e;}.cls-3{fill:url(#Sfumatura_senza_nome);}.cls-4{fill:#fff;isolation:isolate;opacity:0.4;}.cls-5{fill:#da7b16;}</style><linearGradient id="Sfumatura_senza_nome" x1="90" y1="143.8" x2="90" y2="66.4" gradientTransform="matrix(1, 0, 0, -1, 0, 182)" gradientUnits="userSpaceOnUse"><stop offset="0" stop-color="#fff" stop-opacity="0"/><stop offset="1" stop-color="#ffd75e" stop-opacity="0.3"/></linearGradient></defs><path class="cls-1" d="M85.79,38.2l-6-6.08a8.37,8.37,0,0,0-6-2.52H35.21A4.26,4.26,0,0,0,31,33.9v80.27a1.42,1.42,0,0,0,1.4,1.43H147.6a1.42,1.42,0,0,0,1.4-1.43V42.5a4.26,4.26,0,0,0-4.21-4.3Z"/><path class="cls-2" d="M85.79,38.2l-6,6.08a8.37,8.37,0,0,1-6,2.52H31v67.37a1.42,1.42,0,0,0,1.4,1.43H147.6a1.42,1.42,0,0,0,1.4-1.43V42.5a4.26,4.26,0,0,0-4.21-4.3Z"/><path class="cls-3" d="M85.79,38.2l-6,6.08a8.37,8.37,0,0,1-6,2.52H31v67.37a1.42,1.42,0,0,0,1.4,1.43H147.6a1.42,1.42,0,0,0,1.4-1.43V42.5a4.26,4.26,0,0,0-4.21-4.3Z"/><path class="cls-4" d="M31,46.8v1.43H74a9.7,9.7,0,0,0,7-2.94l7-7.09h-2.1l-6,6.08a8.37,8.37,0,0,1-6,2.52Z"/><path class="cls-5" d="M147.6,115.6H32.4a1.42,1.42,0,0,1-1.4-1.43H149A1.42,1.42,0,0,1,147.6,115.6Z"/></svg>