<svg id="Livello_1" data-name="Livello 1" xmlns="http://www.w3.org/2000/svg" viewBox="0 0 180 180"><defs><style>.cls-1{fill:#fff;}.cls-2{fill:#979593;}.cls-3{fill:#c8c6c4;}.cls-4,.cls-5{fill:none;stroke-width:2px;}.cls-4{stroke:#69afe5;stroke-miterlimit:10;}.cls-5{stroke:#c8c6c4;stroke-linecap:round;stroke-linejoin:round;}</style></defs><path class="cls-1" d="M103,33.52H60.27A1.27,1.27,0,0,0,59,34.79v77.46a1.27,1.27,0,0,0,1.27,1.27H120a1.27,1.27,0,0,0,1.27-1.27V51.78a2.94,2.94,0,0,0-.87-2.09l-15.3-15.3A2.94,2.94,0,0,0,103,33.52Z"/><path class="cls-2" d="M121.12,50.23,103.29,32.4a3,3,0,0,0-2.12-.88H61a3,3,0,0,0-3,3v78a3,3,0,0,0,3,3h58a3,3,0,0,0,3-3V52.35A3,3,0,0,0,121.12,50.23ZM102,33.93l17.59,17.59H103a1,1,0,0,1-1-1Zm17,79.59H61a1,1,0,0,1-1-1v-78a1,1,0,0,1,1-1h39v17a3,3,0,0,0,3,3h17v59A1,1,0,0,1,119,113.52Z"/><path class="cls-3" d="M113,96.52H67a1,1,0,0,1-1-1h0a1,1,0,0,1,1-1h46a1,1,0,0,1,1,1h0A1,1,0,0,1,113,96.52Z"/><circle class="cls-4" cx="90" cy="75.52" r="13"/><ellipse class="cls-4" cx="90" cy="75.52" rx="6" ry="13"/><path class="cls-4" d="M78,69.52h24m-24,11h24"/><path class="cls-3" d="M113,102.52H67a1,1,0,0,1-1-1h0a1,1,0,0,1,1-1h46a1,1,0,0,1,1,1h0A1,1,0,0,1,113,102.52Z"/><path class="cls-5" d="M109,79l4-4-4-4M71,71l-4,4,4,4"/></svg>