<svg id="Livello_1" data-name="Livello 1" xmlns="http://www.w3.org/2000/svg" viewBox="0 0 180 180"><defs><style>.cls-1{fill:#fff;stroke:#979593;}.cls-1,.cls-2,.cls-3{stroke-miterlimit:10;stroke-width:2.19px;}.cls-2,.cls-3{fill:none;}.cls-2{stroke:#a6ccc3;}.cls-3{stroke:#ff9810;}</style></defs><path class="cls-1" d="M130.44,115.23H49.56A2.19,2.19,0,0,1,47.37,113V32.16A2.19,2.19,0,0,1,49.56,30h80.88a2.19,2.19,0,0,1,2.19,2.19V113A2.19,2.19,0,0,1,130.44,115.23Z"/><path class="cls-2" d="M100.7,72.74l-5.76,7.82a1.09,1.09,0,0,1-1.74,0L83.53,68.24a2.19,2.19,0,0,0-3.45,0L63.17,89.83a2.19,2.19,0,0,0,1.73,3.54h50.2a2.19,2.19,0,0,0,1.76-3.49L104.22,72.74A2.19,2.19,0,0,0,100.7,72.74Z"/><circle class="cls-3" cx="110.77" cy="58.39" r="6.56"/></svg>