<svg id="Livello_1" data-name="Livello 1" xmlns="http://www.w3.org/2000/svg" viewBox="0 0 180 180"><defs><style>.cls-1{fill:#fa0f00;}.cls-2{fill:#fff;}</style></defs><g id="Layer_1" data-name="Layer 1"><g id="Layer_2" data-name="Layer 2"><g id="DC_EC_Logo_Surface" data-name="DC EC Logo Surface"><g id="Outline_no_shadow" data-name="Outline no shadow"><path class="cls-1" d="M61.17,29.6h57.66a15.7,15.7,0,0,1,15.76,15.77V99.83a15.7,15.7,0,0,1-15.76,15.77H61.17A15.7,15.7,0,0,1,45.41,99.83V45.37A15.7,15.7,0,0,1,61.17,29.6Z"/></g></g></g></g><g id="Layer_2-2" data-name="Layer 2"><g id="Layer_86" data-name="Layer 86"><path id="_64" data-name=" 64" class="cls-2" d="M117.07,79.29c-4.14-4.3-15.44-2.55-18.15-2.23a48.46,48.46,0,0,1-7.65-10,46.11,46.11,0,0,0,2.55-13.22c0-4-1.59-8.28-6-8.28A4.61,4.61,0,0,0,84,47.76c-1.91,3.34-1.12,10,1.91,16.88a115.89,115.89,0,0,1-7.8,18.15c-4.62,1.91-14.34,6.37-15.13,11.15a4.26,4.26,0,0,0,1.27,4,6.09,6.09,0,0,0,4,1.44c5.89,0,11.63-8.13,15.61-15a105.45,105.45,0,0,1,13.85-3.67c6.22,5.42,11.63,6.21,14.5,6.21,3.82,0,5.25-1.59,5.73-3A4.13,4.13,0,0,0,117.07,79.29Zm-4,2.71c-.16,1.11-1.59,2.23-4.14,1.59a22,22,0,0,1-8.12-4.14,34.11,34.11,0,0,1,10-.16C112.14,79.61,113.41,80.4,113.09,82ZM86.5,49.19a1.6,1.6,0,0,1,1.27-.8c1.43,0,1.75,1.75,1.75,3.19a34.81,34.81,0,0,1-1.91,9.87C85.22,55.08,85.7,50.62,86.5,49.19Zm-.32,30.9a90.85,90.85,0,0,0,3.66-8.92,40.3,40.3,0,0,0,5.1,6.53C94.94,77.86,90,78.81,86.18,80.09Zm-9.4,6.37c-3.66,6.05-7.48,9.87-9.55,9.87a2.27,2.27,0,0,1-1-.32,1.21,1.21,0,0,1-.48-1.43C66.27,92.35,70.41,89.32,76.78,86.46Z"/></g></g></svg>