<svg id="Livello_1" data-name="Livello 1" xmlns="http://www.w3.org/2000/svg" viewBox="0 0 180 180">
    <defs>
        <style>
            .cls-1 {
                fill: #fff;
            }

            .cls-2 {
                fill: #979593;
            }

            .cls-3 {
                fill: #c8c6c4;
            }

            .cls-4 {
                fill: #fc3406;
            }
        </style>
    </defs>
    <path class="cls-1"
        d="M103.27,31.65H59.56a1.3,1.3,0,0,0-1.3,1.3v79.3a1.3,1.3,0,0,0,1.3,1.3h61.11a1.3,1.3,0,0,0,1.3-1.3V50.35a3,3,0,0,0-.89-2.15L105.41,32.54A3,3,0,0,0,103.27,31.65Z" />
    <path class="cls-2"
        d="M121.86,48.75,103.61,30.5a3,3,0,0,0-2.17-.9H60.31a3.08,3.08,0,0,0-3.07,3.07v79.86a3.08,3.08,0,0,0,3.07,3.07h59.38a3.08,3.08,0,0,0,3.07-3.07V50.92A3,3,0,0,0,121.86,48.75ZM102.29,32.07l18,18h-17a1,1,0,0,1-1-1Zm17.4,81.48H60.31a1,1,0,0,1-1-1V32.67a1,1,0,0,1,1-1h39.93v17.4a3.07,3.07,0,0,0,3.07,3.07h17.4v60.41A1,1,0,0,1,119.69,113.55Z" />
    <path class="cls-3"
        d="M113.55,61.34H66.45a1,1,0,0,1-1-1h0a1,1,0,0,1,1-1h47.1a1,1,0,0,1,1,1h0A1,1,0,0,1,113.55,61.34Zm0,6.14H66.45a1,1,0,0,1-1-1h0a1,1,0,0,1,1-1h47.1a1,1,0,0,1,1,1h0A1,1,0,0,1,113.55,67.48Zm0,6.14H66.45a1,1,0,0,1-1-1h0a1,1,0,0,1,1-1h47.1a1,1,0,0,1,1,1h0A1,1,0,0,1,113.55,73.62Zm0,6.15H66.45a1,1,0,0,1-1-1h0a1,1,0,0,1,1-1h47.1a1,1,0,0,1,1,1h0A1,1,0,0,1,113.55,79.77Z" />
    <path class="cls-4" d="M124.7,101.34H55.3V77.64h69.4Z" />
    <path class="cls-1"
        d="M65.15,80.55h9A6.22,6.22,0,0,1,78.61,82a5.28,5.28,0,0,1,1.47,4,5.45,5.45,0,0,1-1.6,4.16,7,7,0,0,1-4.89,1.5h-3v6.53H65.15Zm5.46,7.5h1.33a3.38,3.38,0,0,0,2.21-.55,1.74,1.74,0,0,0,.64-1.4,2,2,0,0,0-.55-1.4,2.89,2.89,0,0,0-2.08-.58H70.61Z" />
    <path class="cls-1"
        d="M83,80.55h8.08a9.72,9.72,0,0,1,3.86.65,6.23,6.23,0,0,1,2.43,1.86,7.61,7.61,0,0,1,1.39,2.82,12.93,12.93,0,0,1,.43,3.4,11.85,11.85,0,0,1-.64,4.38,7.3,7.3,0,0,1-1.78,2.6,5.82,5.82,0,0,1-2.45,1.4,12.59,12.59,0,0,1-3.24.48H83Zm5.44,4v9.61h1.33a5.45,5.45,0,0,0,2.42-.38,2.54,2.54,0,0,0,1.13-1.32,8.26,8.26,0,0,0,.41-3c0-1.86-.3-3.14-.91-3.83a3.9,3.9,0,0,0-3-1Z" />
    <path class="cls-1" d="M102.06,80.55H115.5v3.78h-8V87.4h6.81V91h-6.81v7.19h-5.46Z" />
</svg>