<svg id="Livello_1" data-name="Livello 1" xmlns="http://www.w3.org/2000/svg" viewBox="0 0 180 180"><defs><style>.cls-1{fill:#fff;}.cls-2{fill:#979593;}.cls-3{fill:#c8c6c4;}.cls-4{fill:#fa0f00;}</style></defs><path class="cls-1" d="M113.12,32.57H69.41a1.3,1.3,0,0,0-1.3,1.3v79.3a1.3,1.3,0,0,0,1.3,1.3h61.11a1.3,1.3,0,0,0,1.3-1.3V51.27a3,3,0,0,0-.89-2.15L115.26,33.45A3,3,0,0,0,113.12,32.57Z"/><path class="cls-2" d="M131.71,49.67,113.46,31.42a3,3,0,0,0-2.17-.9H70.16a3.08,3.08,0,0,0-3.07,3.07v79.86a3.08,3.08,0,0,0,3.07,3.07h59.38a3.07,3.07,0,0,0,3.07-3.07V51.84A3,3,0,0,0,131.71,49.67ZM112.14,33l18,18h-17a1,1,0,0,1-1-1Zm17.4,81.48H70.16a1,1,0,0,1-1-1V33.59a1,1,0,0,1,1-1h39.93V50A3.08,3.08,0,0,0,113.16,53h17.41v60.41A1,1,0,0,1,129.54,114.47Z"/><path class="cls-3" d="M123.4,86.83H76.3a1,1,0,0,1-1-1h0a1,1,0,0,1,1-1h47.1a1,1,0,0,1,1,1h0A1,1,0,0,1,123.4,86.83Zm0-6.14H76.3a1,1,0,0,1-1-1h0a1,1,0,0,1,1-1h47.1a1,1,0,0,1,1,1h0A1,1,0,0,1,123.4,80.69Zm0-6.15H76.3a1,1,0,0,1-1-1h0a1,1,0,0,1,1-1h47.1a1,1,0,0,1,1,1h0A1,1,0,0,1,123.4,74.54Zm0-6.14H76.3a1,1,0,0,1-1-1h0a1,1,0,0,1,1-1h47.1a1,1,0,0,1,1,1h0A1,1,0,0,1,123.4,68.4Zm0,24.57H76.3a1,1,0,0,1-1-1h0a1,1,0,0,1,1-1h47.1a1,1,0,0,1,1,1h0A1,1,0,0,1,123.4,93Z"/><g id="Layer_1" data-name="Layer 1"><g id="Layer_2" data-name="Layer 2"><g id="DC_EC_Logo_Surface" data-name="DC EC Logo Surface"><g id="Outline_no_shadow" data-name="Outline no shadow"><path class="cls-4" d="M55.08,57.92H83.2a7.66,7.66,0,0,1,7.69,7.69V92.18a7.66,7.66,0,0,1-7.69,7.69H55.08a7.65,7.65,0,0,1-7.69-7.69V65.61A7.65,7.65,0,0,1,55.08,57.92Z"/></g></g></g></g><g id="Layer_2-2" data-name="Layer 2"><g id="Layer_86" data-name="Layer 86"><path id="_64" data-name=" 64" class="cls-1" d="M82.35,82.16c-2-2.1-7.54-1.25-8.86-1.09a23.78,23.78,0,0,1-3.73-4.9A22.55,22.55,0,0,0,71,69.73c0-2-.77-4-3-4a2.23,2.23,0,0,0-1.86,1.08c-.94,1.63-.55,4.9.93,8.24a55.89,55.89,0,0,1-3.81,8.85c-2.25.94-7,3.11-7.38,5.44a2.09,2.09,0,0,0,.62,1.94,3,3,0,0,0,1.94.7c2.88,0,5.68-4,7.62-7.3a52.45,52.45,0,0,1,6.76-1.79,10.7,10.7,0,0,0,7.07,3c1.86,0,2.56-.77,2.79-1.47A2,2,0,0,0,82.35,82.16ZM80.4,83.48c-.07.54-.77,1.08-2,.77a10.64,10.64,0,0,1-4-2,16.65,16.65,0,0,1,4.9-.07C79.94,82.31,80.56,82.7,80.4,83.48Zm-13-16a.8.8,0,0,1,.62-.39c.7,0,.86.86.86,1.56A16.89,16.89,0,0,1,68,73.45C66.81,70.35,67,68.17,67.43,67.47Zm-.16,15.07a40.45,40.45,0,0,0,1.79-4.35,19.18,19.18,0,0,0,2.49,3.19C71.55,81.46,69.14,81.92,67.27,82.54Zm-4.58,3.11C60.9,88.6,59,90.47,58,90.47a1.1,1.1,0,0,1-.47-.16.59.59,0,0,1-.23-.7C57.56,88.53,59.58,87.05,62.69,85.65Z"/></g></g></svg>