<svg xmlns="http://www.w3.org/2000/svg" viewBox="0 0 96 96" fill="#FFF" stroke-miterlimit="10" stroke-width="2">
	<path stroke="#979593" d="M85,87H11c-1.1046,0-2-0.8954-2-2V11 c0-1.1046,0.8954-2,2-2h74c1.1046,0,2,0.8954,2,2v74C87,86.1046,86.1046,87,85,87z"/>
	<path fill="none" stroke="#A6CCC3" d="M57.7923,48.1301l-5.2771,7.156 c-0.3925,0.5323-1.1844,0.5437-1.5922,0.023l-8.8463-11.298c-0.8008-1.0227-2.3487-1.0227-3.1494,0L23.4584,63.767 C22.4305,65.0798,23.3658,67,25.0331,67h18.8439h16.2H70.967c1.6406,0,2.5834-1.8666,1.6096-3.187L61.0116,48.1301 C60.2122,47.0462,58.5916,47.0462,57.7923,48.1301z"/>
	<circle fill="none" stroke="#FF9810" cx="67" cy="35" r="6"/>
</svg>