<svg id="Livello_1" data-name="Livello 1" xmlns="http://www.w3.org/2000/svg" viewBox="0 0 180 180"><defs><style>.cls-1{fill:#001e36;}.cls-2{fill:#31a8ff;}</style></defs><g id="Layer_2" data-name="Layer 2"><g id="Surfaces"><g id="Photo_Surface" data-name="Photo Surface"><g id="Outline_no_shadow" data-name="Outline no shadow"><path class="cls-1" d="M61.52,29.6h57A15.6,15.6,0,0,1,134.1,45.22V100a15.6,15.6,0,0,1-15.62,15.62h-57A15.6,15.6,0,0,1,45.9,100V45.22A15.6,15.6,0,0,1,61.52,29.6Z"/></g></g></g><g id="Outlined_Mnemonics_Logos" data-name="Outlined Mnemonics Logos"><g id="Ps"><path class="cls-2" d="M65.74,89.91V52.09c0-.25.11-.4.37-.4.63,0,1.21,0,2.06,0s1.8,0,2.79-.07,2.06,0,3.2-.08,2.24,0,3.34,0a21.69,21.69,0,0,1,7.58,1.14,13.12,13.12,0,0,1,4.92,3,11.71,11.71,0,0,1,2.68,4.19,14.07,14.07,0,0,1,.85,4.78,13.15,13.15,0,0,1-2.21,7.83,12.65,12.65,0,0,1-5.91,4.48,23.81,23.81,0,0,1-8.27,1.25c-.89,0-1.47,0-1.84,0s-.88,0-1.58,0V89.87a.46.46,0,0,1-.41.52H66.18C65.89,90.39,65.74,90.24,65.74,89.91Zm8-31.13V71.13c.51,0,1,.07,1.43.07h2a13.73,13.73,0,0,0,4.22-.66,6.32,6.32,0,0,0,3-2,5.65,5.65,0,0,0,1.14-3.78,6.09,6.09,0,0,0-.85-3.27,5.35,5.35,0,0,0-2.57-2.1,10.75,10.75,0,0,0-4.34-.73c-1,0-1.8,0-2.5,0a8.57,8.57,0,0,0-1.5,0Z"/><path class="cls-2" d="M116.46,68.89a13,13,0,0,0-3.53-1.25,19,19,0,0,0-4.11-.48,7.12,7.12,0,0,0-2.21.26,1.92,1.92,0,0,0-1.14.73,2,2,0,0,0-.29,1,1.62,1.62,0,0,0,.37.95,3.92,3.92,0,0,0,1.25,1c.84.44,1.72.85,2.61,1.22A26.6,26.6,0,0,1,115.06,75,8.5,8.5,0,0,1,118,78a7.87,7.87,0,0,1,.84,3.78,8.48,8.48,0,0,1-1.43,4.89A9.18,9.18,0,0,1,113.26,90a16.66,16.66,0,0,1-6.65,1.18,25.44,25.44,0,0,1-5-.48,15,15,0,0,1-3.75-1.17.73.73,0,0,1-.4-.7v-6.4a.41.41,0,0,1,.15-.33.29.29,0,0,1,.33,0,15.9,15.9,0,0,0,4.56,1.8,16.91,16.91,0,0,0,4.33.55,7,7,0,0,0,3-.51,1.73,1.73,0,0,0,1-1.55,2,2,0,0,0-.89-1.47,15,15,0,0,0-3.6-1.72,23.1,23.1,0,0,1-5.22-2.65,9.62,9.62,0,0,1-2.79-3.12,8,8,0,0,1-.85-3.75,8.74,8.74,0,0,1,1.25-4.45,9,9,0,0,1,3.86-3.38,14.3,14.3,0,0,1,6.51-1.29,31.9,31.9,0,0,1,4.56.33,12.93,12.93,0,0,1,3.16.85.61.61,0,0,1,.36.33,1.7,1.7,0,0,1,.08.44v6a.47.47,0,0,1-.19.37A1,1,0,0,1,116.46,68.89Z"/></g></g></g></svg>