<svg xmlns="http://www.w3.org/2000/svg" viewBox="0 0 96 96" fill="#FFF" stroke-miterlimit="10" stroke-width="2">
	<path stroke="#979593" d="M67.1716,20H11c-1.1046,0-2,0.8954-2,2v52 c0,1.1046,0.8954,2,2,2h74c1.1046,0,2-0.8954,2-2V39.8284c0-0.5304-0.2107-1.0391-0.5858-1.4142L68.5858,20.5858 C68.2107,20.2107,67.702,20,67.1716,20z"/>
	<path fill="none" stroke="#979593" d="M67,20v18c0,1.1046,0.8954,2,2,2h18"/>
	<path fill="#C8C6C4" d="M34 44H17c-.5523 0-1-.4477-1-1l0 0c0-.5523.4477-1 1-1h17c.5523 0 1 .4477 1 1l0 0C35 43.5523 34.5523 44 34 44zM34 38H17c-.5523 0-1-.4477-1-1l0 0c0-.5523.4477-1 1-1h17c.5523 0 1 .4477 1 1l0 0C35 37.5523 34.5523 38 34 38zM34 50H17c-.5523 0-1-.4477-1-1l0 0c0-.5523.4477-1 1-1h17c.5523 0 1 .4477 1 1l0 0C35 49.5523 34.5523 50 34 50zM34 56H17c-.5523 0-1-.4477-1-1l0 0c0-.5523.4477-1 1-1h17c.5523 0 1 .4477 1 1l0 0C35 55.5523 34.5523 56 34 56zM34 62H17c-.5523 0-1-.4477-1-1l0 0c0-.5523.4477-1 1-1h17c.5523 0 1 .4477 1 1l0 0C35 61.5523 34.5523 62 34 62zM34 68H17c-.5523 0-1-.4477-1-1l0 0c0-.5523.4477-1 1-1h17c.5523 0 1 .4477 1 1l0 0C35 67.5523 34.5523 68 34 68z"/>
	<path fill="#B7472A" d="M55,37.9999c6.6274,0,11.9999,5.3726,11.9999,12.0001H55V37.9999z"/>
	<path fill="#C8C6C4" d="M67,52c0,7.732-6.268,14-14,14s-14-6.268-14-14s6.268-14,14-14v14H67z"/>
</svg>